<svg width="321" height="97" viewBox="0 0 321 97" fill="none" xmlns="http://www.w3.org/2000/svg">
<path d="M34.176 25.3875V35.3715H16.128V43.3075H29.44V52.8435H16.128V70.5075H3.584V25.3875H34.176ZM48.547 25.3875V51.5635C48.547 53.9955 49.1017 55.8728 50.211 57.1955C51.363 58.5182 53.091 59.1795 55.395 59.1795C57.699 59.1795 59.427 58.5182 60.579 57.1955C61.7737 55.8302 62.371 53.9528 62.371 51.5635V25.3875H74.915V51.5635C74.915 55.7022 74.0403 59.2435 72.291 62.1875C70.5417 65.0888 68.1523 67.2862 65.123 68.7795C62.1363 70.2302 58.8083 70.9555 55.139 70.9555C51.4697 70.9555 48.1843 70.2302 45.283 68.7795C42.4243 67.2862 40.163 65.0888 38.499 62.1875C36.8777 59.2862 36.067 55.7448 36.067 51.5635V25.3875H48.547ZM95.6455 70.9555C90.3975 70.9555 86.0882 69.7182 82.7175 67.2435C79.3468 64.7262 77.5335 61.1422 77.2775 56.4915H90.6535C90.7815 58.0702 91.2508 59.2222 92.0615 59.9475C92.8722 60.6728 93.9175 61.0355 95.1975 61.0355C96.3495 61.0355 97.2882 60.7582 98.0135 60.2035C98.7815 59.6062 99.1655 58.7955 99.1655 57.7715C99.1655 56.4488 98.5468 55.4248 97.3095 54.6995C96.0722 53.9742 94.0668 53.1635 91.2935 52.2675C88.3495 51.2862 85.9602 50.3475 84.1255 49.4515C82.3335 48.5128 80.7548 47.1688 79.3895 45.4195C78.0668 43.6275 77.4055 41.3022 77.4055 38.4435C77.4055 35.5422 78.1308 33.0675 79.5815 31.0195C81.0322 28.9288 83.0375 27.3502 85.5975 26.2835C88.1575 25.2168 91.0588 24.6835 94.3015 24.6835C99.5495 24.6835 103.731 25.9208 106.845 28.3955C110.003 30.8275 111.688 34.2622 111.902 38.6995H98.2695C98.2268 37.3342 97.8002 36.3102 96.9895 35.6275C96.2215 34.9448 95.2188 34.6035 93.9815 34.6035C93.0428 34.6035 92.2748 34.8808 91.6775 35.4355C91.0802 35.9902 90.7815 36.7795 90.7815 37.8035C90.7815 38.6568 91.1015 39.4035 91.7415 40.0435C92.4242 40.6408 93.2562 41.1742 94.2375 41.6435C95.2188 42.0702 96.6695 42.6248 98.5895 43.3075C101.448 44.2888 103.795 45.2702 105.629 46.2515C107.507 47.1902 109.107 48.5342 110.43 50.2835C111.795 51.9902 112.478 54.1662 112.478 56.8115C112.478 59.4995 111.795 61.9102 110.43 64.0435C109.107 66.1768 107.165 67.8622 104.605 69.0995C102.088 70.3368 99.1015 70.9555 95.6455 70.9555ZM127.653 35.4355V42.7955H142.053V52.3315H127.653V60.4595H143.973V70.5075H115.109V25.3875H143.973V35.4355H127.653Z" fill="#F7E123"/>
<path d="M177.563 25.3875V35.3715H159.515V43.3075H172.827V52.8435H159.515V70.5075H146.971V25.3875H177.563ZM192.191 60.9075H206.207V70.5075H179.647V25.3875H192.191V60.9075ZM229.516 70.9555C225.292 70.9555 221.409 69.9742 217.868 68.0115C214.327 66.0062 211.511 63.2542 209.42 59.7555C207.372 56.2142 206.348 52.2248 206.348 47.7875C206.348 43.3502 207.372 39.3822 209.42 35.8835C211.511 32.3422 214.327 29.5902 217.868 27.6275C221.409 25.6648 225.292 24.6835 229.516 24.6835C233.783 24.6835 237.665 25.6648 241.164 27.6275C244.705 29.5902 247.5 32.3422 249.548 35.8835C251.596 39.3822 252.62 43.3502 252.62 47.7875C252.62 52.2248 251.596 56.2142 249.548 59.7555C247.5 63.2542 244.705 66.0062 241.164 68.0115C237.623 69.9742 233.74 70.9555 229.516 70.9555ZM229.516 59.3075C232.716 59.3075 235.233 58.2622 237.068 56.1715C238.945 54.0808 239.884 51.2862 239.884 47.7875C239.884 44.2035 238.945 41.3875 237.068 39.3395C235.233 37.2488 232.716 36.2035 229.516 36.2035C226.273 36.2035 223.735 37.2488 221.9 39.3395C220.065 41.3875 219.148 44.2035 219.148 47.7875C219.148 51.3288 220.065 54.1448 221.9 56.2355C223.735 58.2835 226.273 59.3075 229.516 59.3075ZM318.611 25.3875L307.539 70.5075H292.115L285.907 42.8595L279.571 70.5075H264.147L253.203 25.3875H266.771L272.019 56.2355L279.123 25.3875H292.883L299.795 55.9795L305.043 25.3875H318.611Z" fill="#3D3C3A"/>
<path d="M318.749 47.7854H142.982" stroke="#B8B6B6" stroke-width="3"/>
<path d="M137.075 33.4907C137.075 31.8339 138.418 30.4907 140.075 30.4907H144.233V65.0801H140.075C138.418 65.0801 137.075 63.7369 137.075 62.0801V33.4907Z" fill="#B8B6B6"/>
<rect x="142.982" y="32.6318" width="7.01758" height="30.3071" fill="#B8B6B6"/>
<path fill-rule="evenodd" clip-rule="evenodd" d="M147.883 57.143C152.889 56.4036 156.708 52.4955 156.708 47.7854C156.708 43.0753 152.889 39.1673 147.883 38.4279V57.143Z" fill="#B8B6B6"/>
</svg>
