<svg width="322" height="97" viewBox="0 0 322 97" fill="none" xmlns="http://www.w3.org/2000/svg">
<path d="M34.7011 25.3875V35.3715H16.6531V43.3075H29.9651V52.8435H16.6531V70.5075H4.10915V25.3875H34.7011ZM49.0721 25.3875V51.5635C49.0721 53.9955 49.6268 55.8728 50.7361 57.1955C51.8881 58.5182 53.6161 59.1795 55.9201 59.1795C58.2241 59.1795 59.9521 58.5182 61.1041 57.1955C62.2988 55.8302 62.8961 53.9528 62.8961 51.5635V25.3875H75.4401V51.5635C75.4401 55.7022 74.5655 59.2435 72.8161 62.1875C71.0668 65.0888 68.6775 67.2862 65.6481 68.7795C62.6615 70.2302 59.3335 70.9555 55.6641 70.9555C51.9948 70.9555 48.7095 70.2302 45.8081 68.7795C42.9495 67.2862 40.6881 65.0888 39.0241 62.1875C37.4028 59.2862 36.5921 55.7448 36.5921 51.5635V25.3875H49.0721ZM96.1706 70.9555C90.9226 70.9555 86.6133 69.7182 83.2426 67.2435C79.872 64.7262 78.0586 61.1422 77.8026 56.4915H91.1786C91.3066 58.0702 91.776 59.2222 92.5866 59.9475C93.3973 60.6728 94.4426 61.0355 95.7226 61.0355C96.8746 61.0355 97.8133 60.7582 98.5386 60.2035C99.3066 59.6062 99.6906 58.7955 99.6906 57.7715C99.6906 56.4488 99.072 55.4248 97.8346 54.6995C96.5973 53.9742 94.592 53.1635 91.8186 52.2675C88.8746 51.2862 86.4853 50.3475 84.6506 49.4515C82.8586 48.5128 81.28 47.1688 79.9146 45.4195C78.592 43.6275 77.9306 41.3022 77.9306 38.4435C77.9306 35.5422 78.656 33.0675 80.1066 31.0195C81.5573 28.9288 83.5626 27.3502 86.1226 26.2835C88.6826 25.2168 91.584 24.6835 94.8266 24.6835C100.075 24.6835 104.256 25.9208 107.371 28.3955C110.528 30.8275 112.213 34.2622 112.427 38.6995H98.7946C98.752 37.3342 98.3253 36.3102 97.5146 35.6275C96.7466 34.9448 95.744 34.6035 94.5066 34.6035C93.568 34.6035 92.8 34.8808 92.2026 35.4355C91.6053 35.9902 91.3066 36.7795 91.3066 37.8035C91.3066 38.6568 91.6266 39.4035 92.2666 40.0435C92.9493 40.6408 93.7813 41.1742 94.7626 41.6435C95.744 42.0702 97.1946 42.6248 99.1146 43.3075C101.973 44.2888 104.32 45.2702 106.155 46.2515C108.032 47.1902 109.632 48.5342 110.955 50.2835C112.32 51.9902 113.003 54.1662 113.003 56.8115C113.003 59.4995 112.32 61.9102 110.955 64.0435C109.632 66.1768 107.691 67.8622 105.131 69.0995C102.613 70.3368 99.6266 70.9555 96.1706 70.9555ZM128.178 35.4355V42.7955H142.578V52.3315H128.178V60.4595H144.498V70.5075H115.634V25.3875H144.498V35.4355H128.178Z" fill="#F7E123"/>
<path d="M178.089 25.3875V35.3715H160.041V43.3075H173.353V52.8435H160.041V70.5075H147.497V25.3875H178.089ZM192.716 60.9075H206.732V70.5075H180.172V25.3875H192.716V60.9075ZM230.041 70.9555C225.817 70.9555 221.934 69.9742 218.393 68.0115C214.852 66.0062 212.036 63.2542 209.945 59.7555C207.897 56.2142 206.873 52.2248 206.873 47.7875C206.873 43.3502 207.897 39.3822 209.945 35.8835C212.036 32.3422 214.852 29.5902 218.393 27.6275C221.934 25.6648 225.817 24.6835 230.041 24.6835C234.308 24.6835 238.19 25.6648 241.689 27.6275C245.23 29.5902 248.025 32.3422 250.073 35.8835C252.121 39.3822 253.145 43.3502 253.145 47.7875C253.145 52.2248 252.121 56.2142 250.073 59.7555C248.025 63.2542 245.23 66.0062 241.689 68.0115C238.148 69.9742 234.265 70.9555 230.041 70.9555ZM230.041 59.3075C233.241 59.3075 235.758 58.2622 237.593 56.1715C239.47 54.0808 240.409 51.2862 240.409 47.7875C240.409 44.2035 239.47 41.3875 237.593 39.3395C235.758 37.2488 233.241 36.2035 230.041 36.2035C226.798 36.2035 224.26 37.2488 222.425 39.3395C220.59 41.3875 219.673 44.2035 219.673 47.7875C219.673 51.3288 220.59 54.1448 222.425 56.2355C224.26 58.2835 226.798 59.3075 230.041 59.3075ZM319.136 25.3875L308.064 70.5075H292.64L286.432 42.8595L280.096 70.5075H264.672L253.728 25.3875H267.296L272.544 56.2355L279.648 25.3875H293.408L300.32 55.9795L305.568 25.3875H319.136Z" fill="#7D7D7D"/>
<path d="M319.274 47.7854H143.508" stroke="#F5F5F5" stroke-width="3"/>
<path d="M137.6 33.4907C137.6 31.8339 138.943 30.4907 140.6 30.4907H144.758V65.0801H140.6C138.943 65.0801 137.6 63.7369 137.6 62.0801V33.4907Z" fill="#F5F5F5"/>
<rect x="143.508" y="32.6318" width="7.01758" height="30.3071" fill="#F5F5F5"/>
<path fill-rule="evenodd" clip-rule="evenodd" d="M148.408 57.143C153.414 56.4036 157.233 52.4955 157.233 47.7854C157.233 43.0753 153.414 39.1673 148.408 38.4279V57.143Z" fill="#F5F5F5"/>
</svg>
